<svg xmlns="http://www.w3.org/2000/svg" width="21.187" height="17.305" viewBox="0 0 21.187 17.305">
  <path id="Trazado_90829" data-name="Trazado 90829" d="M-5188.355,1955.35c-.048-.089-4.782-8.885-6.413-11.926a8.318,8.318,0,0,0-2.08-2.738,6.849,6.849,0,0,0-3.074,2.816c-1.863,2.942-5.062,10.993-5.094,11.074l-2.324-.921c.135-.339,3.318-8.351,5.306-11.49a10.117,10.117,0,0,1,3.286-3.311,5.879,5.879,0,0,1,1.822-.753l.3-.055.293.09c.313.1,1.967.749,3.767,4.107,1.63,3.039,6.364,11.834,6.411,11.922Z" transform="translate(5207.341 -1938.045)" fill="#ada193"/>
</svg>
