<svg xmlns="http://www.w3.org/2000/svg" width="81.005" height="10.27" viewBox="0 0 81.005 10.27">
  <path id="path0" d="M148.051,106.9c-1.454.581-1.785,2.685-.462,2.933.959.18,2.471-1.131,2.308-2a1.5,1.5,0,0,0-1.847-.931m-58.064,6a7.121,7.121,0,0,0,2.545,0c.524-.071.591.081.374.853-.3,1.063-.124,1.717.549,2.065.714.369,1.756.022,4.107-1.369,2.74-1.621,3.09-1.6,3.178.232.122,2.543,1.454,2.918,5.612,1.576,2.415-.779,3.1-.787,3.932-.045,1.24,1.1,2.842,1.01,5.347-.306,1.7-.9,1.728-.9,2.434-.2,1.131,1.113,2.155,1.079,5.17-.168,1.679-.695,2.666-.691,3.032.011,1.036,1.981,6.186,2.106,10.937.157,2.824-1.158,5.612-2.257,6.4-.168,1.785,1.844,3.055,1.991,7.634.226,2.566-.989,3.749-.989,4.436,0,.984,1.42,2.459,1.035,4.639.288,1.659-.8,2.344-1.469,2.345-2.985,0-.784.5-1.272.852-1.279.749-.014,6.675-1.283,6.877-1.361.624-.242.529-.946-.143-1.052a51.85,51.85,0,0,0-9.93.461c-.471.055-.55.026-.969.1a3.139,3.139,0,0,0-2.9,1.224,7.565,7.565,0,0,1-3.766,2.539c-2.27.81-5.315,1.116-6.358.638-.651-.3-.718-.452-.633-1.464.132-1.577-.95-2.224-2.571-1.536-.329.139-1.046.426-1.594.637s-1.759.682-2.69,1.047c-3.75,1.469-7.551,2.039-8.678,1.3-.567-.371-.04-1.114,1.129-1.595,2.061-.847,2.3-1.05,2.185-1.888-.206-1.535-2.423-1.236-5.229.7-2.2,1.522-5.658,2.661-7.1,2.338-.806-.181-.946-.437-.946-1.732,0-3.39-3.84-3.187-8.567.454a9.784,9.784,0,0,1-5.985,1.937c-2.079.083-2.421-.141-2.286-1.491.168-1.684.075-2.049-.649-2.542-.662-.45-1.2-.319-3.795.93-2.478,1.192-2.683,1.2-2.683.136,0-2.195-1.986-2.078-5.7.334C90.092,112.034,89.486,112.647,89.987,112.9Z" transform="translate(-89.798 -106.825)" fill="#ada193" fill-rule="evenodd"/>
</svg>
